<svg xmlns="http://www.w3.org/2000/svg" xmlns:xlink="http://www.w3.org/1999/xlink" width="500" zoomAndPan="magnify" viewBox="0 0 375 374.999991" height="500" preserveAspectRatio="xMidYMid meet" version="1.0"><defs><filter x="0%" y="0%" width="100%" height="100%" id="560bae587a"><feColorMatrix values="0 0 0 0 1 0 0 0 0 1 0 0 0 0 1 0 0 0 1 0" color-interpolation-filters="sRGB"/></filter><g/><clipPath id="03c5c34749"><path d="M 16.351562 156.667969 L 35.976562 156.667969 L 35.976562 176.292969 L 16.351562 176.292969 Z M 16.351562 156.667969 " clip-rule="nonzero"/></clipPath><clipPath id="a92f85620c"><path d="M 26.164062 156.667969 C 20.746094 156.667969 16.351562 161.058594 16.351562 166.480469 C 16.351562 171.898438 20.746094 176.292969 26.164062 176.292969 C 31.582031 176.292969 35.976562 171.898438 35.976562 166.480469 C 35.976562 161.058594 31.582031 156.667969 26.164062 156.667969 Z M 26.164062 156.667969 " clip-rule="nonzero"/></clipPath><clipPath id="93590c1d35"><path d="M 39.023438 156.667969 L 58.648438 156.667969 L 58.648438 176.292969 L 39.023438 176.292969 Z M 39.023438 156.667969 " clip-rule="nonzero"/></clipPath><clipPath id="a573ff77cd"><path d="M 48.835938 156.667969 C 43.417969 156.667969 39.023438 161.058594 39.023438 166.480469 C 39.023438 171.898438 43.417969 176.292969 48.835938 176.292969 C 54.253906 176.292969 58.648438 171.898438 58.648438 166.480469 C 58.648438 161.058594 54.253906 156.667969 48.835938 156.667969 Z M 48.835938 156.667969 " clip-rule="nonzero"/></clipPath><clipPath id="cd4e64a75e"><path d="M 16.351562 186.683594 L 35.976562 186.683594 L 35.976562 206.308594 L 16.351562 206.308594 Z M 16.351562 186.683594 " clip-rule="nonzero"/></clipPath><clipPath id="0eb77960c7"><path d="M 26.164062 186.683594 C 20.746094 186.683594 16.351562 191.078125 16.351562 196.496094 C 16.351562 201.914062 20.746094 206.308594 26.164062 206.308594 C 31.582031 206.308594 35.976562 201.914062 35.976562 196.496094 C 35.976562 191.078125 31.582031 186.683594 26.164062 186.683594 Z M 26.164062 186.683594 " clip-rule="nonzero"/></clipPath><mask id="fb2413884a"><g filter="url(#560bae587a)"><rect x="-37.5" width="450" fill="#000000" y="-37.499999" height="449.999989" fill-opacity="0.46"/></g></mask><clipPath id="b84871c5e9"><path d="M 1.023438 0.683594 L 20.648438 0.683594 L 20.648438 20.308594 L 1.023438 20.308594 Z M 1.023438 0.683594 " clip-rule="nonzero"/></clipPath><clipPath id="da205453dd"><path d="M 10.835938 0.683594 C 5.417969 0.683594 1.023438 5.078125 1.023438 10.496094 C 1.023438 15.914062 5.417969 20.308594 10.835938 20.308594 C 16.253906 20.308594 20.648438 15.914062 20.648438 10.496094 C 20.648438 5.078125 16.253906 0.683594 10.835938 0.683594 Z M 10.835938 0.683594 " clip-rule="nonzero"/></clipPath><clipPath id="565b7e73e0"><rect x="0" width="21" y="0" height="21"/></clipPath></defs><g fill="#2d1d4d" fill-opacity="1"><g transform="translate(56.644714, 209.262965)"><g><path d="M 6.625 -50.65625 L 16.53125 -50.65625 L 16.53125 -41.71875 L 17.296875 -41.71875 C 17.492188 -42.476562 18.132812 -43.660156 19.21875 -45.265625 C 20.3125 -46.867188 21.976562 -48.390625 24.21875 -49.828125 C 26.457031 -51.273438 29.273438 -52 32.671875 -52 C 36.328125 -52 39.351562 -51.164062 41.75 -49.5 C 44.15625 -47.832031 45.9375 -46.035156 47.09375 -44.109375 C 48.25 -42.191406 48.828125 -40.976562 48.828125 -40.46875 L 49.59375 -40.46875 C 49.914062 -41.363281 50.632812 -42.691406 51.75 -44.453125 C 52.875 -46.210938 54.703125 -47.910156 57.234375 -49.546875 C 59.765625 -51.179688 62.921875 -52 66.703125 -52 C 70.867188 -52 74.3125 -50.925781 77.03125 -48.78125 C 79.75 -46.632812 81.71875 -43.941406 82.9375 -40.703125 C 84.15625 -37.460938 84.765625 -34.113281 84.765625 -30.65625 L 84.765625 0 L 74.875 0 L 74.875 -29.703125 C 74.875 -34.054688 73.734375 -37.367188 71.453125 -39.640625 C 69.179688 -41.921875 66.378906 -43.0625 63.046875 -43.0625 C 59.585938 -43.0625 56.65625 -41.890625 54.25 -39.546875 C 51.851562 -37.210938 50.65625 -33.929688 50.65625 -29.703125 L 50.65625 0 L 40.75 0 L 40.75 -29.703125 C 40.75 -34.054688 39.609375 -37.367188 37.328125 -39.640625 C 35.054688 -41.921875 32.253906 -43.0625 28.921875 -43.0625 C 25.460938 -43.0625 22.53125 -41.890625 20.125 -39.546875 C 17.726562 -37.210938 16.53125 -33.929688 16.53125 -29.703125 L 16.53125 0 L 6.625 0 Z M 6.625 -50.65625 "/></g></g></g><g fill="#2d1d4d" fill-opacity="1"><g transform="translate(136.400587, 209.262965)"><g><path d="M 28.453125 0.671875 C 23.191406 0.671875 18.765625 -0.578125 15.171875 -3.078125 C 11.585938 -5.578125 8.929688 -8.828125 7.203125 -12.828125 C 5.472656 -16.835938 4.609375 -21.113281 4.609375 -25.65625 C 4.609375 -30.207031 5.472656 -34.484375 7.203125 -38.484375 C 8.929688 -42.492188 11.601562 -45.75 15.21875 -48.25 C 18.84375 -50.75 23.285156 -52 28.546875 -52 C 35.460938 -52 40.96875 -49.738281 45.0625 -45.21875 C 49.164062 -40.695312 51.21875 -34.144531 51.21875 -25.5625 L 51.21875 -22.78125 L 14.3125 -22.78125 L 14.3125 -22.109375 C 14.3125 -19.546875 14.890625 -17.140625 16.046875 -14.890625 C 17.203125 -12.648438 18.835938 -10.84375 20.953125 -9.46875 C 23.066406 -8.09375 25.5 -7.40625 28.25 -7.40625 C 31.257812 -7.40625 33.851562 -8.15625 36.03125 -9.65625 C 38.21875 -11.164062 39.789062 -13.203125 40.75 -15.765625 L 50.546875 -15.765625 C 49.265625 -11.023438 46.734375 -7.097656 42.953125 -3.984375 C 39.179688 -0.878906 34.347656 0.671875 28.453125 0.671875 Z M 41.515625 -29.609375 C 41.265625 -34.796875 39.96875 -38.554688 37.625 -40.890625 C 35.289062 -43.234375 32.203125 -44.40625 28.359375 -44.40625 C 24.253906 -44.40625 20.96875 -43.054688 18.5 -40.359375 C 16.03125 -37.671875 14.734375 -34.085938 14.609375 -29.609375 Z M 41.515625 -29.609375 "/></g></g></g><g fill="#2d1d4d" fill-opacity="1"><g transform="translate(181.178352, 209.262965)"><g><path d="M 6.625 -50.65625 L 16.625 -50.65625 L 16.625 -42 L 17.390625 -42 C 18.609375 -44.820312 20.59375 -47.191406 23.34375 -49.109375 C 26.101562 -51.035156 29.503906 -52 33.546875 -52 C 37.898438 -52 41.484375 -50.957031 44.296875 -48.875 C 47.117188 -46.789062 49.171875 -44.128906 50.453125 -40.890625 C 51.734375 -37.660156 52.375 -34.21875 52.375 -30.5625 L 52.375 0 L 42.484375 0 L 42.484375 -29.125 C 42.484375 -33.738281 41.3125 -37.257812 38.96875 -39.6875 C 36.632812 -42.125 33.546875 -43.34375 29.703125 -43.34375 C 25.660156 -43.34375 22.46875 -42.03125 20.125 -39.40625 C 17.789062 -36.78125 16.625 -33.351562 16.625 -29.125 L 16.625 0 L 6.625 0 Z M 6.625 -50.65625 "/></g></g></g><g fill="#2d1d4d" fill-opacity="1"><g transform="translate(228.550652, 209.262965)"><g><path d="M 24.984375 0.671875 C 20.628906 0.671875 16.878906 -0.445312 13.734375 -2.6875 C 10.597656 -4.9375 8.210938 -8.046875 6.578125 -12.015625 C 4.941406 -15.984375 4.125 -20.5 4.125 -25.5625 C 4.125 -30.6875 4.957031 -35.234375 6.625 -39.203125 C 8.289062 -43.179688 10.707031 -46.304688 13.875 -48.578125 C 17.050781 -50.859375 20.851562 -52 25.28125 -52 C 29.695312 -52 33.21875 -50.972656 35.84375 -48.921875 C 38.476562 -46.867188 40.46875 -44.5 41.8125 -41.8125 L 42.484375 -41.8125 L 42.484375 -50.65625 L 52.46875 -50.65625 L 52.46875 0 L 42.484375 0 L 42.484375 -9.796875 L 41.8125 -9.796875 C 40.394531 -6.984375 38.34375 -4.535156 35.65625 -2.453125 C 32.96875 -0.367188 29.410156 0.671875 24.984375 0.671875 Z M 28.359375 -7.59375 C 32.898438 -7.59375 36.375 -9.335938 38.78125 -12.828125 C 41.1875 -16.316406 42.390625 -20.59375 42.390625 -25.65625 C 42.390625 -30.71875 41.1875 -34.976562 38.78125 -38.4375 C 36.375 -41.90625 32.898438 -43.640625 28.359375 -43.640625 C 23.742188 -43.640625 20.25 -41.90625 17.875 -38.4375 C 15.5 -34.976562 14.3125 -30.75 14.3125 -25.75 C 14.3125 -20.625 15.484375 -16.316406 17.828125 -12.828125 C 20.171875 -9.335938 23.679688 -7.59375 28.359375 -7.59375 Z M 28.359375 -7.59375 "/></g></g></g><g fill="#2d1d4d" fill-opacity="1"><g transform="translate(276.979974, 209.262965)"><g><path d="M 28.640625 0.765625 C 23.316406 0.765625 18.863281 -0.484375 15.28125 -2.984375 C 11.695312 -5.484375 9.019531 -8.734375 7.25 -12.734375 C 5.488281 -16.734375 4.609375 -21.039062 4.609375 -25.65625 C 4.609375 -30.207031 5.488281 -34.484375 7.25 -38.484375 C 9.019531 -42.492188 11.695312 -45.75 15.28125 -48.25 C 18.863281 -50.75 23.316406 -52 28.640625 -52 C 35.242188 -52 40.46875 -50.09375 44.3125 -46.28125 C 48.15625 -42.46875 50.457031 -37.738281 51.21875 -32.09375 L 41.515625 -32.09375 C 40.941406 -35.5625 39.582031 -38.367188 37.4375 -40.515625 C 35.289062 -42.660156 32.390625 -43.734375 28.734375 -43.734375 C 23.992188 -43.734375 20.4375 -42 18.0625 -38.53125 C 15.695312 -35.070312 14.515625 -30.78125 14.515625 -25.65625 C 14.515625 -20.53125 15.695312 -16.238281 18.0625 -12.78125 C 20.4375 -9.320312 23.992188 -7.59375 28.734375 -7.59375 C 32.390625 -7.59375 35.289062 -8.648438 37.4375 -10.765625 C 39.582031 -12.878906 40.941406 -15.664062 41.515625 -19.125 L 51.21875 -19.125 C 50.457031 -13.488281 48.15625 -8.765625 44.3125 -4.953125 C 40.46875 -1.140625 35.242188 0.765625 28.640625 0.765625 Z M 28.640625 0.765625 "/></g></g></g><g fill="#2d1d4d" fill-opacity="1"><g transform="translate(321.181174, 209.262965)"><g><path d="M 28.453125 0.671875 C 23.191406 0.671875 18.765625 -0.578125 15.171875 -3.078125 C 11.585938 -5.578125 8.929688 -8.828125 7.203125 -12.828125 C 5.472656 -16.835938 4.609375 -21.113281 4.609375 -25.65625 C 4.609375 -30.207031 5.472656 -34.484375 7.203125 -38.484375 C 8.929688 -42.492188 11.601562 -45.75 15.21875 -48.25 C 18.84375 -50.75 23.285156 -52 28.546875 -52 C 35.460938 -52 40.96875 -49.738281 45.0625 -45.21875 C 49.164062 -40.695312 51.21875 -34.144531 51.21875 -25.5625 L 51.21875 -22.78125 L 14.3125 -22.78125 L 14.3125 -22.109375 C 14.3125 -19.546875 14.890625 -17.140625 16.046875 -14.890625 C 17.203125 -12.648438 18.835938 -10.84375 20.953125 -9.46875 C 23.066406 -8.09375 25.5 -7.40625 28.25 -7.40625 C 31.257812 -7.40625 33.851562 -8.15625 36.03125 -9.65625 C 38.21875 -11.164062 39.789062 -13.203125 40.75 -15.765625 L 50.546875 -15.765625 C 49.265625 -11.023438 46.734375 -7.097656 42.953125 -3.984375 C 39.179688 -0.878906 34.347656 0.671875 28.453125 0.671875 Z M 41.515625 -29.609375 C 41.265625 -34.796875 39.96875 -38.554688 37.625 -40.890625 C 35.289062 -43.234375 32.203125 -44.40625 28.359375 -44.40625 C 24.253906 -44.40625 20.96875 -43.054688 18.5 -40.359375 C 16.03125 -37.671875 14.734375 -34.085938 14.609375 -29.609375 Z M 41.515625 -29.609375 "/></g></g></g><g fill="#2d1d4d" fill-opacity="1"><g transform="translate(365.961104, 209.262965)"><g/></g></g><g clip-path="url(#03c5c34749)"><g clip-path="url(#a92f85620c)"><path fill="#c4aaf8" d="M 16.351562 156.667969 L 35.976562 156.667969 L 35.976562 176.292969 L 16.351562 176.292969 Z M 16.351562 156.667969 " fill-opacity="1" fill-rule="nonzero"/></g></g><g clip-path="url(#93590c1d35)"><g clip-path="url(#a573ff77cd)"><path fill="#c4aaf8" d="M 39.023438 156.667969 L 58.648438 156.667969 L 58.648438 176.292969 L 39.023438 176.292969 Z M 39.023438 156.667969 " fill-opacity="1" fill-rule="nonzero"/></g></g><g clip-path="url(#cd4e64a75e)"><g clip-path="url(#0eb77960c7)"><path fill="#2d1d4d" d="M 16.351562 186.683594 L 35.976562 186.683594 L 35.976562 206.308594 L 16.351562 206.308594 Z M 16.351562 186.683594 " fill-opacity="1" fill-rule="nonzero"/></g></g><g mask="url(#fb2413884a)"><g transform="matrix(1, 0, 0, 1, 38, 186)"><g clip-path="url(#565b7e73e0)"><g clip-path="url(#b84871c5e9)"><g clip-path="url(#da205453dd)"><path fill="#2d1d4d" d="M 1.023438 0.683594 L 20.648438 0.683594 L 20.648438 20.308594 L 1.023438 20.308594 Z M 1.023438 0.683594 " fill-opacity="1" fill-rule="nonzero"/></g></g></g></g></g></svg>